<?xml version="1.0" encoding="UTF-8" standalone="no"?>
<svg
   width="24"
   height="24"
   viewBox="0 0 24 24"
   fill="none"
   version="1.1"
   id="svg17"
   sodipodi:docname="icon-truck24.svg"
   inkscape:version="1.1 (c68e22c387, 2021-05-23)"
   xmlns:inkscape="http://www.inkscape.org/namespaces/inkscape"
   xmlns:sodipodi="http://sodipodi.sourceforge.net/DTD/sodipodi-0.dtd"
   xmlns="http://www.w3.org/2000/svg"
   xmlns:svg="http://www.w3.org/2000/svg">
  <sodipodi:namedview
     id="namedview19"
     pagecolor="#ffffff"
     bordercolor="#666666"
     borderopacity="1.0"
     inkscape:pageshadow="2"
     inkscape:pageopacity="0.0"
     inkscape:pagecheckerboard="0"
     showgrid="false"
     inkscape:zoom="19.211149"
     inkscape:cx="10.410621"
     inkscape:cy="16.00633"
     inkscape:window-width="1920"
     inkscape:window-height="1051"
     inkscape:window-x="-9"
     inkscape:window-y="-9"
     inkscape:window-maximized="1"
     inkscape:current-layer="svg17" />
  <g
     clip-path="url(#clip0_1_82)"
     id="g10"
     transform="matrix(0.59873694,0,0,0.59873694,1.82146,1.821466)">
    <path
       d="m 26.1,29.6 c 1.933,0 3.5,-1.567 3.5,-3.5 0,-1.933 -1.567,-3.5 -3.5,-3.5 -1.933,0 -3.5,1.567 -3.5,3.5 0,1.933 1.567,3.5 3.5,3.5 z"
       stroke="#000000"
       stroke-width="2"
       stroke-linecap="round"
       stroke-linejoin="round"
       id="path2" />
    <path
       d="m 7.90002,29.6 c 1.933,0 3.49998,-1.567 3.49998,-3.5 0,-1.933 -1.56698,-3.5 -3.49998,-3.5 -1.93299,0 -3.5,1.567 -3.5,3.5 0,1.933 1.56701,3.5 3.5,3.5 z"
       stroke="#000000"
       stroke-width="2"
       stroke-linecap="round"
       stroke-linejoin="round"
       id="path4" />
    <path
       d="m 22.6,11.4 h 5.6 l 4.2,4.2 v 7 h -9.8 z"
       stroke="#000000"
       stroke-width="2"
       stroke-linecap="round"
       stroke-linejoin="round"
       id="path6" />
    <path
       d="M 22.6,4.40002 H 1.60004 V 22.6 H 22.6 Z"
       stroke="#000000"
       stroke-width="2"
       stroke-linecap="round"
       stroke-linejoin="round"
       id="path8" />
  </g>
  <defs
     id="defs15">
    <clipPath
       id="clip0_1_82">
      <rect
         width="33.599998"
         height="33.599998"
         fill="#ffffff"
         transform="translate(0.200012,0.200012)"
         id="rect12"
         x="0"
         y="0" />
    </clipPath>
  </defs>
</svg>
